<svg width="401" height="30" viewBox="0 0 401 30" fill="none" xmlns="http://www.w3.org/2000/svg">
<path d="M5.06449 2.88355V22.1672H0.367188V2.88355H5.06449Z" fill="#C22B20"/>
<path d="M17.5849 6.67435C19.3796 6.67435 20.808 7.26037 21.8702 8.43241C22.9506 9.58613 23.4909 11.1794 23.4909 13.2121V22.1672H18.821V13.8439C18.821 12.8184 18.5555 12.0218 18.0244 11.4541C17.4933 10.8864 16.7791 10.6025 15.8818 10.6025C14.9844 10.6025 14.2702 10.8864 13.7392 11.4541C13.2081 12.0218 12.9425 12.8184 12.9425 13.8439V22.1672H8.24524V6.83917H12.9425V8.87192C13.4187 8.19434 14.0596 7.66326 14.8654 7.27868C15.6712 6.8758 16.5777 6.67435 17.5849 6.67435Z" fill="#C22B20"/>
<path d="M35.0747 18.1841V22.1672H32.6849C30.9818 22.1672 29.6541 21.7552 28.7018 20.9311C27.7495 20.0887 27.2734 18.7243 27.2734 16.8381V10.7399H25.4054V6.83917H27.2734V3.10331H31.9707V6.83917H35.0473V10.7399H31.9707V16.893C31.9707 17.3509 32.0805 17.6805 32.3003 17.8819C32.5201 18.0834 32.8863 18.1841 33.3991 18.1841H35.0747Z" fill="#C22B20"/>
<path d="M51.9169 14.256C51.9169 14.6955 51.8894 15.1533 51.8345 15.6294H41.2037C41.277 16.5817 41.5792 17.3142 42.1102 17.827C42.6596 18.3215 43.3281 18.5687 44.1155 18.5687C45.2875 18.5687 46.1025 18.0742 46.5603 17.0853H51.5598C51.3034 18.0925 50.8364 18.999 50.1588 19.8048C49.4995 20.6106 48.6663 21.2424 47.6591 21.7002C46.6519 22.158 45.5256 22.387 44.2803 22.387C42.7787 22.387 41.4418 22.0665 40.2698 21.4255C39.0977 20.7846 38.1821 19.8689 37.5228 18.6786C36.8635 17.4882 36.5339 16.0964 36.5339 14.5032C36.5339 12.9099 36.8544 11.5182 37.4953 10.3278C38.1546 9.13746 39.0703 8.22181 40.2423 7.58085C41.4143 6.93989 42.7603 6.61941 44.2803 6.61941C45.7637 6.61941 47.0822 6.93074 48.2359 7.55338C49.3897 8.17602 50.287 9.06421 50.928 10.2179C51.5872 11.3717 51.9169 12.7177 51.9169 14.256ZM47.1097 13.0198C47.1097 12.2141 46.835 11.5731 46.2856 11.097C45.7362 10.6208 45.0495 10.3827 44.2254 10.3827C43.4379 10.3827 42.7695 10.6117 42.2201 11.0695C41.689 11.5273 41.3594 12.1774 41.2312 13.0198H47.1097Z" fill="#C22B20"/>
<path d="M58.8689 1.83971V22.1672H54.1716V1.83971H58.8689Z" fill="#C22B20"/>
<path d="M66.7469 1.83971V22.1672H62.0496V1.83971H66.7469Z" fill="#C22B20"/>
<path d="M72.2901 5.24594C71.466 5.24594 70.7884 5.00787 70.2573 4.53173C69.7446 4.03727 69.4882 3.43294 69.4882 2.71874C69.4882 1.98621 69.7446 1.38188 70.2573 0.905741C70.7884 0.411289 71.466 0.164062 72.2901 0.164062C73.0959 0.164062 73.7551 0.411289 74.2679 0.905741C74.799 1.38188 75.0645 1.98621 75.0645 2.71874C75.0645 3.43294 74.799 4.03727 74.2679 4.53173C73.7551 5.00787 73.0959 5.24594 72.2901 5.24594ZM74.625 6.83917V22.1672H69.9277V6.83917H74.625Z" fill="#C22B20"/>
<path d="M83.6293 6.61941C84.7098 6.61941 85.6529 6.83917 86.4587 7.27868C87.2828 7.7182 87.9146 8.29506 88.3541 9.00927V6.83917H93.0514V22.1397C93.0514 23.5498 92.7675 24.8226 92.1998 25.958C91.6504 27.1117 90.7989 28.0274 89.6451 28.705C88.5097 29.3825 87.0905 29.7213 85.3874 29.7213C83.1165 29.7213 81.2761 29.1811 79.866 28.1006C78.4559 27.0385 77.6501 25.5917 77.4486 23.7604H82.091C82.2375 24.3465 82.5855 24.8043 83.1348 25.1339C83.6842 25.4819 84.3618 25.6558 85.1676 25.6558C86.1382 25.6558 86.9073 25.372 87.475 24.8043C88.0611 24.2549 88.3541 23.3667 88.3541 22.1397V19.9696C87.8962 20.6838 87.2644 21.2699 86.4587 21.7277C85.6529 22.1672 84.7098 22.387 83.6293 22.387C82.3657 22.387 81.2211 22.0665 80.1956 21.4255C79.1701 20.7663 78.3551 19.8414 77.7508 18.6511C77.1648 17.4424 76.8718 16.0506 76.8718 14.4757C76.8718 12.9008 77.1648 11.5182 77.7508 10.3278C78.3551 9.13746 79.1701 8.22181 80.1956 7.58085C81.2211 6.93989 82.3657 6.61941 83.6293 6.61941ZM88.3541 14.5032C88.3541 13.3311 88.0244 12.4063 87.3652 11.7288C86.7242 11.0512 85.9367 10.7124 85.0028 10.7124C84.0688 10.7124 83.2722 11.0512 82.6129 11.7288C81.972 12.388 81.6515 13.3037 81.6515 14.4757C81.6515 15.6478 81.972 16.5817 82.6129 17.2776C83.2722 17.9552 84.0688 18.294 85.0028 18.294C85.9367 18.294 86.7242 17.9552 87.3652 17.2776C88.0244 16.6 88.3541 15.6752 88.3541 14.5032Z" fill="#C22B20"/>
<path d="M110.675 14.256C110.675 14.6955 110.648 15.1533 110.593 15.6294H99.9622C100.035 16.5817 100.338 17.3142 100.869 17.827C101.418 18.3215 102.087 18.5687 102.874 18.5687C104.046 18.5687 104.861 18.0742 105.319 17.0853H110.318C110.062 18.0925 109.595 18.999 108.917 19.8048C108.258 20.6106 107.425 21.2424 106.418 21.7002C105.41 22.158 104.284 22.387 103.039 22.387C101.537 22.387 100.2 22.0665 99.0282 21.4255C97.8562 20.7846 96.9405 19.8689 96.2813 18.6786C95.622 17.4882 95.2924 16.0964 95.2924 14.5032C95.2924 12.9099 95.6128 11.5182 96.2538 10.3278C96.9131 9.13746 97.8287 8.22181 99.0008 7.58085C100.173 6.93989 101.519 6.61941 103.039 6.61941C104.522 6.61941 105.841 6.93074 106.994 7.55338C108.148 8.17602 109.045 9.06421 109.686 10.2179C110.346 11.3717 110.675 12.7177 110.675 14.256ZM105.868 13.0198C105.868 12.2141 105.593 11.5731 105.044 11.097C104.495 10.6208 103.808 10.3827 102.984 10.3827C102.196 10.3827 101.528 10.6117 100.979 11.0695C100.447 11.5273 100.118 12.1774 99.9897 13.0198H105.868Z" fill="#C22B20"/>
<path d="M122.27 6.67435C124.064 6.67435 125.493 7.26037 126.555 8.43241C127.635 9.58613 128.176 11.1794 128.176 13.2121V22.1672H123.506V13.8439C123.506 12.8184 123.24 12.0218 122.709 11.4541C122.178 10.8864 121.464 10.6025 120.567 10.6025C119.669 10.6025 118.955 10.8864 118.424 11.4541C117.893 12.0218 117.627 12.8184 117.627 13.8439V22.1672H112.93V6.83917H117.627V8.87192C118.104 8.19434 118.744 7.66326 119.55 7.27868C120.356 6.8758 121.263 6.67435 122.27 6.67435Z" fill="#C22B20"/>
<path d="M139.76 18.1841V22.1672H137.37C135.667 22.1672 134.339 21.7552 133.387 20.9311C132.434 20.0887 131.958 18.7243 131.958 16.8381V10.7399H130.09V6.83917H131.958V3.10331H136.655V6.83917H139.732V10.7399H136.655V16.893C136.655 17.3509 136.765 17.6805 136.985 17.8819C137.205 18.0834 137.571 18.1841 138.084 18.1841H139.76Z" fill="#C22B20"/>
<path d="M157.585 22.1672L153.574 14.8878H152.448V22.1672H147.751V2.88355H155.634C157.154 2.88355 158.445 3.14909 159.508 3.68017C160.588 4.21125 161.394 4.94377 161.925 5.87774C162.456 6.79339 162.721 7.81892 162.721 8.95433C162.721 10.2362 162.355 11.3808 161.623 12.388C160.908 13.3952 159.846 14.1095 158.436 14.5307L162.886 22.1672H157.585ZM152.448 11.5639H155.36C156.22 11.5639 156.861 11.3533 157.283 10.9321C157.722 10.5109 157.942 9.91577 157.942 9.14662C157.942 8.4141 157.722 7.83723 157.283 7.41603C156.861 6.99483 156.22 6.78423 155.36 6.78423H152.448V11.5639Z" fill="#C22B20"/>
<path d="M164.513 14.4757C164.513 12.9008 164.806 11.5182 165.392 10.3278C165.996 9.13746 166.811 8.22181 167.837 7.58085C168.862 6.93989 170.007 6.61941 171.27 6.61941C172.351 6.61941 173.294 6.83917 174.1 7.27868C174.924 7.7182 175.556 8.29506 175.995 9.00927V6.83917H180.692V22.1672H175.995V19.9971C175.537 20.7113 174.896 21.2882 174.072 21.7277C173.267 22.1672 172.323 22.387 171.243 22.387C169.998 22.387 168.862 22.0665 167.837 21.4255C166.811 20.7663 165.996 19.8414 165.392 18.6511C164.806 17.4424 164.513 16.0506 164.513 14.4757ZM175.995 14.5032C175.995 13.3311 175.666 12.4063 175.006 11.7288C174.365 11.0512 173.578 10.7124 172.644 10.7124C171.71 10.7124 170.913 11.0512 170.254 11.7288C169.613 12.388 169.293 13.3037 169.293 14.4757C169.293 15.6478 169.613 16.5817 170.254 17.2776C170.913 17.9552 171.71 18.294 172.644 18.294C173.578 18.294 174.365 17.9552 175.006 17.2776C175.666 16.6 175.995 15.6752 175.995 14.5032Z" fill="#C22B20"/>
<path d="M182.933 14.5032C182.933 12.9099 183.254 11.5182 183.895 10.3278C184.554 9.13746 185.461 8.22181 186.614 7.58085C187.786 6.93989 189.123 6.61941 190.625 6.61941C192.548 6.61941 194.15 7.12302 195.432 8.13024C196.732 9.13746 197.584 10.5567 197.987 12.388H192.987C192.566 11.216 191.751 10.63 190.543 10.63C189.682 10.63 188.995 10.9688 188.482 11.6463C187.97 12.3056 187.713 13.2579 187.713 14.5032C187.713 15.7485 187.97 16.7099 188.482 17.3875C188.995 18.0468 189.682 18.3764 190.543 18.3764C191.751 18.3764 192.566 17.7904 192.987 16.6183H197.987C197.584 18.413 196.732 19.8231 195.432 20.8487C194.132 21.8742 192.529 22.387 190.625 22.387C189.123 22.387 187.786 22.0665 186.614 21.4255C185.461 20.7846 184.554 19.8689 183.895 18.6786C183.254 17.4882 182.933 16.0964 182.933 14.5032Z" fill="#C22B20"/>
<path d="M202.638 5.24594C201.814 5.24594 201.137 5.00787 200.606 4.53173C200.093 4.03727 199.837 3.43294 199.837 2.71874C199.837 1.98621 200.093 1.38188 200.606 0.905741C201.137 0.411289 201.814 0.164062 202.638 0.164062C203.444 0.164062 204.103 0.411289 204.616 0.905741C205.147 1.38188 205.413 1.98621 205.413 2.71874C205.413 3.43294 205.147 4.03727 204.616 4.53173C204.103 5.00787 203.444 5.24594 202.638 5.24594ZM204.973 6.83917V22.1672H200.276V6.83917H204.973Z" fill="#C22B20"/>
<path d="M217.494 6.67435C219.288 6.67435 220.717 7.26037 221.779 8.43241C222.859 9.58613 223.4 11.1794 223.4 13.2121V22.1672H218.73V13.8439C218.73 12.8184 218.464 12.0218 217.933 11.4541C217.402 10.8864 216.688 10.6025 215.791 10.6025C214.893 10.6025 214.179 10.8864 213.648 11.4541C213.117 12.0218 212.851 12.8184 212.851 13.8439V22.1672H208.154V6.83917H212.851V8.87192C213.328 8.19434 213.968 7.66326 214.774 7.27868C215.58 6.8758 216.487 6.67435 217.494 6.67435Z" fill="#C22B20"/>
<path d="M232.264 6.61941C233.345 6.61941 234.288 6.83917 235.093 7.27868C235.918 7.7182 236.549 8.29506 236.989 9.00927V6.83917H241.686V22.1397C241.686 23.5498 241.402 24.8226 240.835 25.958C240.285 27.1117 239.434 28.0274 238.28 28.705C237.145 29.3825 235.725 29.7213 234.022 29.7213C231.751 29.7213 229.911 29.1811 228.501 28.1006C227.091 27.0385 226.285 25.5917 226.083 23.7604H230.726C230.872 24.3465 231.22 24.8043 231.77 25.1339C232.319 25.4819 232.997 25.6558 233.802 25.6558C234.773 25.6558 235.542 25.372 236.11 24.8043C236.696 24.2549 236.989 23.3667 236.989 22.1397V19.9696C236.531 20.6838 235.899 21.2699 235.093 21.7277C234.288 22.1672 233.345 22.387 232.264 22.387C231 22.387 229.856 22.0665 228.83 21.4255C227.805 20.7663 226.99 19.8414 226.386 18.6511C225.8 17.4424 225.507 16.0506 225.507 14.4757C225.507 12.9008 225.8 11.5182 226.386 10.3278C226.99 9.13746 227.805 8.22181 228.83 7.58085C229.856 6.93989 231 6.61941 232.264 6.61941ZM236.989 14.5032C236.989 13.3311 236.659 12.4063 236 11.7288C235.359 11.0512 234.572 10.7124 233.638 10.7124C232.704 10.7124 231.907 11.0512 231.248 11.7288C230.607 12.388 230.286 13.3037 230.286 14.4757C230.286 15.6478 230.607 16.5817 231.248 17.2776C231.907 17.9552 232.704 18.294 233.638 18.294C234.572 18.294 235.359 17.9552 236 17.2776C236.659 16.6 236.989 15.6752 236.989 14.5032Z" fill="#C22B20"/>
<path d="M261.694 3.0209V5.05365H253.371V11.509H260.128V13.5417H253.371V22.1672H250.871V3.0209H261.694Z" fill="#C22B20"/>
<path d="M271.055 22.4144C269.645 22.4144 268.363 22.0939 267.209 21.453C266.074 20.812 265.177 19.9055 264.517 18.7335C263.876 17.5432 263.556 16.1697 263.556 14.6131C263.556 13.0748 263.885 11.7196 264.545 10.5476C265.222 9.35722 266.138 8.45072 267.292 7.82808C268.445 7.18712 269.736 6.86664 271.165 6.86664C272.593 6.86664 273.884 7.18712 275.038 7.82808C276.192 8.45072 277.098 9.34806 277.758 10.5201C278.435 11.6921 278.774 13.0565 278.774 14.6131C278.774 16.1697 278.426 17.5432 277.73 18.7335C277.053 19.9055 276.128 20.812 274.956 21.453C273.784 22.0939 272.483 22.4144 271.055 22.4144ZM271.055 20.2169C271.952 20.2169 272.795 20.0063 273.582 19.5851C274.37 19.1639 275.001 18.5321 275.478 17.6897C275.972 16.8473 276.219 15.8217 276.219 14.6131C276.219 13.4044 275.981 12.3789 275.505 11.5365C275.029 10.6941 274.406 10.0714 273.637 9.66854C272.868 9.24734 272.035 9.03674 271.137 9.03674C270.222 9.03674 269.379 9.24734 268.61 9.66854C267.859 10.0714 267.255 10.6941 266.797 11.5365C266.339 12.3789 266.11 13.4044 266.11 14.6131C266.11 15.84 266.33 16.8747 266.77 17.7171C267.228 18.5595 267.832 19.1913 268.583 19.6125C269.334 20.0154 270.158 20.2169 271.055 20.2169Z" fill="#C22B20"/>
<path d="M295.188 7.11387V22.1672H292.688V19.9422C292.212 20.7113 291.543 21.3156 290.683 21.7552C289.84 22.1764 288.906 22.387 287.881 22.387C286.709 22.387 285.656 22.1489 284.722 21.6727C283.788 21.1783 283.046 20.4458 282.497 19.4752C281.966 18.5046 281.7 17.3234 281.7 15.9316V7.11387H284.172V15.602C284.172 17.0853 284.548 18.2299 285.299 19.0357C286.049 19.8231 287.075 20.2169 288.375 20.2169C289.712 20.2169 290.765 19.8048 291.534 18.9807C292.303 18.1566 292.688 16.9571 292.688 15.3822V7.11387H295.188Z" fill="#C22B20"/>
<path d="M306.519 6.83917C308.351 6.83917 309.834 7.39772 310.969 8.51482C312.105 9.6136 312.672 11.2068 312.672 13.2945V22.1672H310.2V13.6516C310.2 12.15 309.825 11.0054 309.074 10.2179C308.323 9.41216 307.298 9.00927 305.997 9.00927C304.679 9.00927 303.626 9.42131 302.838 10.2454C302.069 11.0695 301.685 12.269 301.685 13.8439V22.1672H299.185V7.11387H301.685V9.2565C302.179 8.48735 302.847 7.89217 303.69 7.47097C304.551 7.04977 305.494 6.83917 306.519 6.83917Z" fill="#C22B20"/>
<path d="M315.598 14.5856C315.598 13.0473 315.91 11.7013 316.532 10.5476C317.155 9.37553 318.007 8.46903 319.087 7.82808C320.186 7.18712 321.413 6.86664 322.768 6.86664C323.94 6.86664 325.03 7.14134 326.037 7.69073C327.044 8.22181 327.813 8.92686 328.344 9.80589V1.83971H330.872V22.1672H328.344V19.3378C327.85 20.2352 327.117 20.9769 326.147 21.5629C325.176 22.1306 324.041 22.4144 322.741 22.4144C321.404 22.4144 320.186 22.0848 319.087 21.4255C318.007 20.7663 317.155 19.8414 316.532 18.6511C315.91 17.4607 315.598 16.1056 315.598 14.5856ZM328.344 14.6131C328.344 13.4777 328.115 12.4887 327.658 11.6463C327.2 10.8039 326.577 10.163 325.79 9.72348C325.021 9.26565 324.169 9.03674 323.235 9.03674C322.301 9.03674 321.449 9.2565 320.68 9.69601C319.911 10.1355 319.298 10.7765 318.84 11.6189C318.382 12.4613 318.153 13.4502 318.153 14.5856C318.153 15.7393 318.382 16.7465 318.84 17.6072C319.298 18.4496 319.911 19.0998 320.68 19.5576C321.449 19.9971 322.301 20.2169 323.235 20.2169C324.169 20.2169 325.021 19.9971 325.79 19.5576C326.577 19.0998 327.2 18.4496 327.658 17.6072C328.115 16.7465 328.344 15.7485 328.344 14.6131Z" fill="#C22B20"/>
<path d="M333.939 14.5856C333.939 13.0473 334.25 11.7013 334.873 10.5476C335.495 9.37553 336.347 8.46903 337.427 7.82808C338.526 7.18712 339.744 6.86664 341.081 6.86664C342.399 6.86664 343.544 7.15049 344.514 7.7182C345.485 8.2859 346.208 9.00011 346.684 9.86083V7.11387H349.212V22.1672H346.684V19.3653C346.19 20.2443 345.448 20.9769 344.459 21.5629C343.489 22.1306 342.353 22.4144 341.053 22.4144C339.716 22.4144 338.508 22.0848 337.427 21.4255C336.347 20.7663 335.495 19.8414 334.873 18.6511C334.25 17.4607 333.939 16.1056 333.939 14.5856ZM346.684 14.6131C346.684 13.4777 346.456 12.4887 345.998 11.6463C345.54 10.8039 344.917 10.163 344.13 9.72348C343.361 9.26565 342.509 9.03674 341.575 9.03674C340.641 9.03674 339.79 9.2565 339.02 9.69601C338.251 10.1355 337.638 10.7765 337.18 11.6189C336.722 12.4613 336.493 13.4502 336.493 14.5856C336.493 15.7393 336.722 16.7465 337.18 17.6072C337.638 18.4496 338.251 19.0998 339.02 19.5576C339.79 19.9971 340.641 20.2169 341.575 20.2169C342.509 20.2169 343.361 19.9971 344.13 19.5576C344.917 19.0998 345.54 18.4496 345.998 17.6072C346.456 16.7465 346.684 15.7485 346.684 14.6131Z" fill="#C22B20"/>
<path d="M356.262 9.17409V18.0468C356.262 18.7793 356.417 19.3012 356.729 19.6125C357.04 19.9055 357.58 20.052 358.349 20.052H360.19V22.1672H357.937C356.546 22.1672 355.502 21.8467 354.806 21.2058C354.11 20.5648 353.762 19.5118 353.762 18.0468V9.17409H351.812V7.11387H353.762V3.32306H356.262V7.11387H360.19V9.17409H356.262Z" fill="#C22B20"/>
<path d="M364.286 4.66907C363.81 4.66907 363.407 4.50426 363.078 4.17462C362.748 3.84499 362.583 3.4421 362.583 2.96596C362.583 2.48982 362.748 2.08693 363.078 1.7573C363.407 1.42766 363.81 1.26285 364.286 1.26285C364.744 1.26285 365.129 1.42766 365.44 1.7573C365.77 2.08693 365.935 2.48982 365.935 2.96596C365.935 3.4421 365.77 3.84499 365.44 4.17462C365.129 4.50426 364.744 4.66907 364.286 4.66907ZM365.495 7.11387V22.1672H362.995V7.11387H365.495Z" fill="#C22B20"/>
<path d="M376.097 22.4144C374.687 22.4144 373.405 22.0939 372.252 21.453C371.116 20.812 370.219 19.9055 369.56 18.7335C368.919 17.5432 368.598 16.1697 368.598 14.6131C368.598 13.0748 368.928 11.7196 369.587 10.5476C370.265 9.35722 371.18 8.45072 372.334 7.82808C373.488 7.18712 374.779 6.86664 376.207 6.86664C377.636 6.86664 378.927 7.18712 380.08 7.82808C381.234 8.45072 382.141 9.34806 382.8 10.5201C383.477 11.6921 383.816 13.0565 383.816 14.6131C383.816 16.1697 383.468 17.5432 382.772 18.7335C382.095 19.9055 381.17 20.812 379.998 21.453C378.826 22.0939 377.526 22.4144 376.097 22.4144ZM376.097 20.2169C376.995 20.2169 377.837 20.0063 378.624 19.5851C379.412 19.1639 380.044 18.5321 380.52 17.6897C381.014 16.8473 381.262 15.8217 381.262 14.6131C381.262 13.4044 381.024 12.3789 380.547 11.5365C380.071 10.6941 379.449 10.0714 378.679 9.66854C377.91 9.24734 377.077 9.03674 376.18 9.03674C375.264 9.03674 374.422 9.24734 373.653 9.66854C372.902 10.0714 372.297 10.6941 371.84 11.5365C371.382 12.3789 371.153 13.4044 371.153 14.6131C371.153 15.84 371.373 16.8747 371.812 17.7171C372.27 18.5595 372.874 19.1913 373.625 19.6125C374.376 20.0154 375.2 20.2169 376.097 20.2169Z" fill="#C22B20"/>
<path d="M394.214 6.83917C396.045 6.83917 397.529 7.39772 398.664 8.51482C399.799 9.6136 400.367 11.2068 400.367 13.2945V22.1672H397.895V13.6516C397.895 12.15 397.519 11.0054 396.769 10.2179C396.018 9.41216 394.992 9.00927 393.692 9.00927C392.374 9.00927 391.321 9.42131 390.533 10.2454C389.764 11.0695 389.379 12.269 389.379 13.8439V22.1672H386.88V7.11387H389.379V9.2565C389.874 8.48735 390.542 7.89217 391.385 7.47097C392.245 7.04977 393.188 6.83917 394.214 6.83917Z" fill="#C22B20"/>
</svg>
